# xmcd
#
# Track frame offsets: 
#        150
#        19837
#        37544
#        56299
#        73302
#        89196
#        105047
#        126513
#        142253
#        161893
#        180479
#        202120
#        220988
#        243432
#
# Disc length: 3533 seconds
#
# Revision: 0
# Processed by: cddbd v1.5.1PL0 Copyright (c) Steve Scherf et al.
# Submitted via: ExactAudioCopy v0.95a2
#
DISCID=cf0dcb0e
DTITLE=Ms Dynamite - Judgement Days
DYEAR=2005
DGENRE=Blues
TTITLE0=Judgement Day
TTITLE1=Father
TTITLE2=Put Your Gun Away
TTITLE3=Back Then
TTITLE4=Fall In Love Again
TTITLE5=Not Today
TTITLE6=You Don't Have To Cry
TTITLE7=Unbreakable
TTITLE8=Pain
TTITLE9=Shavaar
TTITLE10=Self Destruct
TTITLE11=Gotta Let It Go
TTITLE12=She Don't Live Here Anymore
TTITLE13=Mr Prime Minister
EXTD=
EXTT0=
EXTT1=
EXTT2=
EXTT3=
EXTT4=
EXTT5=
EXTT6=
EXTT7=
EXTT8=
EXTT9=
EXTT10=
EXTT11=
EXTT12=
EXTT13=
PLAYORDER=
